<?xml version="1.0" encoding="UTF-8"?>
<!--Generator: Apple Native CoreSVG 175.5-->
<!DOCTYPE svg
PUBLIC "-//W3C//DTD SVG 1.1//EN"
       "http://www.w3.org/Graphics/SVG/1.1/DTD/svg11.dtd">
<svg version="1.1" xmlns="http://www.w3.org/2000/svg" xmlns:xlink="http://www.w3.org/1999/xlink" width="19.9219" height="19.9316">
 <g>
  <rect height="19.9316" opacity="0" width="19.9219" x="0" y="0"/>
  <path d="M9.96094 19.9219C15.4102 19.9219 19.9219 15.4004 19.9219 9.96094C19.9219 4.51172 15.4004 0 9.95117 0C4.51172 0 0 4.51172 0 9.96094C0 15.4004 4.52148 19.9219 9.96094 19.9219ZM9.96094 18.2617C5.35156 18.2617 1.66992 14.5703 1.66992 9.96094C1.66992 5.35156 5.3418 1.66016 9.95117 1.66016C14.5605 1.66016 18.2617 5.35156 18.2617 9.96094C18.2617 14.5703 14.5703 18.2617 9.96094 18.2617Z" fill="#ffffff" fill-opacity="0.85"/>
  <path d="M8.89648 12.9004C11.1328 12.9004 12.959 11.0742 12.959 8.83789C12.959 6.60156 11.1328 4.77539 8.89648 4.77539C6.66016 4.77539 4.83398 6.61133 4.83398 8.83789C4.83398 11.0645 6.66016 12.9004 8.89648 12.9004ZM8.89648 11.5723C7.40234 11.5723 6.16211 10.332 6.16211 8.83789C6.16211 7.34375 7.40234 6.10352 8.89648 6.10352C10.3906 6.10352 11.6211 7.33398 11.6211 8.83789C11.6211 10.332 10.3906 11.5723 8.89648 11.5723ZM14.248 15.0586C14.7168 15.0586 15.0391 14.7168 15.0391 14.2285C15.0391 14.0039 14.9316 13.7988 14.7754 13.6328L11.6895 10.5273L10.4395 11.6602L13.5547 14.7656C13.75 14.9707 13.9648 15.0586 14.248 15.0586Z" fill="#ffffff" fill-opacity="0.85"/>
 </g>
</svg>
